<?xml version="1.0" encoding="UTF-8"?>
<svg width="197px" height="51px" viewBox="0 0 197 51" version="1.1" xmlns="http://www.w3.org/2000/svg" xmlns:xlink="http://www.w3.org/1999/xlink">
    <!-- Generator: Sketch 53 (72520) - https://sketchapp.com -->
    <title>Group 2</title>
    <desc>Created with Sketch.</desc>
    <g id="Page-1" stroke="none" stroke-width="1" fill="none" fill-rule="evenodd">
        <g id="Chrome-Popup" transform="translate(-452.000000, -30.000000)">
            <g id="Group-2" transform="translate(451.000000, 30.000000)">
                <path d="M20.069,50 C19.3169962,50 18.8235012,49.6475035 18.5885,48.9425 L18.1185,46.616 C17.6171642,47.1800028 17.0923361,47.6891644 16.544,48.1435 C15.9956639,48.5978356 15.4042532,48.9894984 14.76975,49.3185 C14.1352468,49.6475016 13.4537536,49.9020824 12.72525,50.08225 C11.9967464,50.2624176 11.2095042,50.3525 10.3635,50.3525 C9.04749342,50.3525 7.84117215,50.0783361 6.7445,49.53 C5.64782785,48.9816639 4.70392062,48.1865885 3.91275,47.14475 C3.12157938,46.1029115 2.51058549,44.814341 2.07975,43.279 C1.64891451,41.743659 1.4335,39.9890099 1.4335,38.015 C1.4335,36.2289911 1.6763309,34.568341 2.162,33.033 C2.64766909,31.497659 3.34482879,30.1660056 4.2535,29.038 C5.16217121,27.9099944 6.25099366,27.0287532 7.52,26.39425 C8.78900635,25.7597468 10.2146588,25.4425 11.797,25.4425 C13.1443401,25.4425 14.2958286,25.6579145 15.2515,26.08875 C16.2071714,26.5195855 17.0609962,27.0953297 17.813,27.816 L17.813,15.079 L23.6175,15.079 L23.6175,50 L20.069,50 Z M12.3375,45.7465 C13.5438394,45.7465 14.5699958,45.4958358 15.416,44.9945 C16.2620042,44.4931642 17.0609962,43.780338 17.813,42.856 L17.813,32.046 C17.1549967,31.246996 16.4382539,30.6830016 15.66275,30.354 C14.8872461,30.0249984 14.0530045,29.8605 13.16,29.8605 C12.2826623,29.8605 11.4875869,30.0249984 10.77475,30.354 C10.0619131,30.6830016 9.45875247,31.1804133 8.96525,31.84625 C8.47174753,32.5120867 8.09183467,33.3580782 7.8255,34.38425 C7.55916534,35.4104218 7.426,36.6206597 7.426,38.015 C7.426,39.4250071 7.5395822,40.6195784 7.76675,41.59875 C7.9939178,42.5779216 8.31899788,43.3769136 8.742,43.99575 C9.16500212,44.6145864 9.68199694,45.061082 10.293,45.33525 C10.9040031,45.609418 11.5854962,45.7465 12.3375,45.7465 Z M49.9050476,50 L47.2965476,50 C46.7482116,50 46.3173825,49.9177508 46.0040476,49.75325 C45.6907127,49.5887492 45.4557151,49.2558358 45.2990476,48.7545 L44.7820476,47.039 C44.1710446,47.5873361 43.5718006,48.0690813 42.9842976,48.48425 C42.3967947,48.8994187 41.7897174,49.2479986 41.1630476,49.53 C40.5363778,49.8120014 39.8705512,50.0234993 39.1655476,50.1645 C38.4605441,50.3055007 37.6772186,50.376 36.8155476,50.376 C35.7972092,50.376 34.8572186,50.238918 33.9955476,49.96475 C33.1338767,49.690582 32.3936341,49.2793361 31.7747976,48.731 C31.1559612,48.1826639 30.674216,47.5011707 30.3295476,46.6865 C29.9848793,45.8718293 29.8125476,44.9240054 29.8125476,43.843 C29.8125476,42.9343288 30.0514619,42.0374211 30.5292976,41.15225 C31.0071334,40.2670789 31.8022087,39.4680869 32.9145476,38.75525 C34.0268865,38.0424131 35.5073717,37.4510023 37.3560476,36.981 C39.2047236,36.5109977 41.4998673,36.244667 44.2415476,36.182 L44.2415476,34.772 C44.2415476,33.1583253 43.900801,31.9637539 43.2192976,31.18825 C42.5377942,30.4127461 41.5468875,30.025 40.2465476,30.025 C39.3065429,30.025 38.5232174,30.1346656 37.8965476,30.354 C37.2698778,30.5733344 36.7254666,30.820082 36.2632976,31.09425 C35.8011287,31.368418 35.3742163,31.6151656 34.9825476,31.8345 C34.590879,32.0538344 34.16005,32.1635 33.6900476,32.1635 C33.298379,32.1635 32.9615491,32.0616677 32.6795476,31.858 C32.3975462,31.6543323 32.1703818,31.4036682 31.9980476,31.106 L30.9405476,29.2495 C33.7135615,26.7114873 37.0583614,25.4425 40.9750476,25.4425 C42.3850547,25.4425 43.6422921,25.673581 44.7467976,26.13575 C45.8513032,26.597919 46.7873771,27.2402459 47.5550476,28.06275 C48.3227181,28.8852541 48.9062956,29.8683276 49.3057976,31.012 C49.7052996,32.1556724 49.9050476,33.4089932 49.9050476,34.772 L49.9050476,50 Z M38.6250476,46.381 C39.220384,46.381 39.7687118,46.3261672 40.2700476,46.2165 C40.7713835,46.1068328 41.2452954,45.9423344 41.6917976,45.723 C42.1382999,45.5036656 42.5691289,45.2334183 42.9842976,44.91225 C43.3994664,44.5910817 43.8185455,44.2111689 44.2415476,43.7725 L44.2415476,39.707 C42.5495392,39.7853337 41.1356367,39.9302489 39.9997976,40.14175 C38.8639586,40.3532511 37.9513844,40.6234984 37.2620476,40.9525 C36.5727109,41.2815016 36.0831324,41.6653311 35.7932976,42.104 C35.5034629,42.5426689 35.3585476,43.0204974 35.3585476,43.5375 C35.3585476,44.5558384 35.660128,45.2843311 36.2632976,45.723 C36.8664673,46.1616689 37.6537095,46.381 38.6250476,46.381 Z M64.6540953,50.376 C62.5704182,50.376 60.9646009,49.7845892 59.8365953,48.60175 C58.7085896,47.4189108 58.1445953,45.7856771 58.1445953,43.702 L58.1445953,30.2365 L55.7005953,30.2365 C55.3872604,30.2365 55.1170131,30.1346677 54.8898453,29.931 C54.6626775,29.7273323 54.5490953,29.4218354 54.5490953,29.0145 L54.5490953,26.7115 L58.4265953,26.077 L59.6485953,19.497 C59.7112623,19.1836651 59.8561775,18.9408342 60.0833453,18.7685 C60.3105131,18.5961658 60.5964269,18.51 60.9410953,18.51 L63.9490953,18.51 L63.9490953,26.1005 L70.2940953,26.1005 L70.2940953,30.2365 L63.9490953,30.2365 L63.9490953,43.3025 C63.9490953,44.0545038 64.1370934,44.6419979 64.5130953,45.065 C64.8890972,45.4880021 65.3904255,45.6995 66.0170953,45.6995 C66.3774304,45.6995 66.6790107,45.6564171 66.9218453,45.57025 C67.1646798,45.4840829 67.3761777,45.3940005 67.5563453,45.3 C67.7365129,45.2059995 67.8970946,45.1159171 68.0380953,45.02975 C68.179096,44.9435829 68.3200946,44.9005 68.4610953,44.9005 C68.6334295,44.9005 68.7744281,44.9435829 68.8840953,45.02975 C68.9937625,45.1159171 69.1112613,45.2451658 69.2365953,45.4175 L70.9755953,48.2375 C70.1295911,48.9425035 69.1582674,49.4751649 68.0615953,49.8355 C66.9649231,50.1958351 65.8291012,50.376 64.6540953,50.376 Z M86.0066429,25.513 C87.5263172,25.513 88.9245532,25.7558309 90.2013929,26.2415 C91.4782326,26.7271691 92.578805,27.4360787 93.5031429,28.36825 C94.4274809,29.3004213 95.1481403,30.4440766 95.6651429,31.79925 C96.1821455,33.1544234 96.4406429,34.7014913 96.4406429,36.4405 C96.4406429,36.8791689 96.4210598,37.2434152 96.3818929,37.53325 C96.3427261,37.8230848 96.2722268,38.0502492 96.1703929,38.21475 C96.0685591,38.3792508 95.9314771,38.4967496 95.7591429,38.56725 C95.5868087,38.6377504 95.3674776,38.673 95.1011429,38.673 L80.2021429,38.673 C80.3744771,41.1483457 81.0403038,42.9656609 82.1996429,44.125 C83.3589821,45.2843391 84.8943,45.864 86.8056429,45.864 C87.7456476,45.864 88.5563895,45.7543344 89.2378929,45.535 C89.9193963,45.3156656 90.5147237,45.0728347 91.0238929,44.8065 C91.5330621,44.5401653 91.9795577,44.2973344 92.3633929,44.078 C92.7472282,43.8586656 93.1193078,43.749 93.4796429,43.749 C93.7146441,43.749 93.9183087,43.7959995 94.0906429,43.89 C94.2629771,43.9840005 94.411809,44.1171658 94.5371429,44.2895 L96.2291429,46.4045 C95.5868064,47.1565038 94.8661469,47.7870808 94.0671429,48.29625 C93.2681389,48.8054192 92.4338973,49.2127485 91.5643929,49.51825 C90.6948886,49.8237515 89.8097308,50.039166 88.9088929,50.1645 C88.0080551,50.289834 87.1346472,50.3525 86.2886429,50.3525 C84.6123012,50.3525 83.0534835,50.0744194 81.6121429,49.51825 C80.1708024,48.9620806 78.9174816,48.1395888 77.8521429,47.05075 C76.7868043,45.9619112 75.948646,44.6145914 75.3376429,43.00875 C74.7266399,41.4029086 74.4211429,39.5425106 74.4211429,37.4275 C74.4211429,35.7824918 74.6874736,34.2354239 75.2201429,32.78625 C75.7528123,31.3370761 76.5165546,30.075922 77.5113929,29.00275 C78.5062312,27.929578 79.7203858,27.0796698 81.1538929,26.453 C82.5874001,25.8263302 84.2049673,25.513 86.0066429,25.513 Z M86.1241429,29.6725 C84.4321345,29.6725 83.1083144,30.1503286 82.1526429,31.106 C81.1969715,32.0616714 80.5859776,33.4168246 80.3196429,35.1715 L91.2236429,35.1715 C91.2236429,34.4194962 91.1218106,33.7105867 90.9181429,33.04475 C90.7144752,32.3789133 90.401145,31.7953358 89.9781429,31.294 C89.5551408,30.7926642 89.0224795,30.3970848 88.3801429,30.10725 C87.7378064,29.8174152 86.9858139,29.6725 86.1241429,29.6725 Z M116.594691,30.589 C116.438023,30.8396679 116.273525,31.0159162 116.101191,31.11775 C115.928856,31.2195838 115.709525,31.2705 115.443191,31.2705 C115.161189,31.2705 114.859609,31.1921674 114.538441,31.0355 C114.217272,30.8788325 113.845193,30.7025843 113.422191,30.50675 C112.999188,30.3109157 112.517443,30.1346675 111.976941,29.978 C111.436438,29.8213326 110.798028,29.743 110.061691,29.743 C108.918018,29.743 108.017194,29.9858309 107.359191,30.4715 C106.701187,30.9571691 106.372191,31.5916628 106.372191,32.375 C106.372191,32.8920026 106.540606,33.3267482 106.877441,33.67925 C107.214276,34.0317518 107.660771,34.3411653 108.216941,34.6075 C108.77311,34.8738347 109.403687,35.1127489 110.108691,35.32425 C110.813694,35.5357511 111.534354,35.7668321 112.270691,36.0175 C113.007028,36.2681679 113.727687,36.5540817 114.432691,36.87525 C115.137694,37.1964183 115.768271,37.6037475 116.324441,38.09725 C116.88061,38.5907525 117.327106,39.1821632 117.663941,39.8715 C118.000776,40.5608368 118.169191,41.3911618 118.169191,42.3625 C118.169191,43.5218391 117.957693,44.5910784 117.534691,45.57025 C117.111688,46.5494216 116.492861,47.3954131 115.678191,48.10825 C114.86352,48.8210869 113.856947,49.377248 112.658441,49.77675 C111.459935,50.176252 110.085198,50.376 108.534191,50.376 C107.703853,50.376 106.893111,50.3015841 106.101941,50.15275 C105.31077,50.0039159 104.550944,49.7963347 103.822441,49.53 C103.093937,49.2636653 102.420277,48.9503351 101.801441,48.59 C101.182604,48.2296649 100.638193,47.8380021 100.168191,47.415 L101.507691,45.206 C101.680025,44.9396653 101.883689,44.7360007 102.118691,44.595 C102.353692,44.4539993 102.651355,44.3835 103.011691,44.3835 C103.372026,44.3835 103.712772,44.4853323 104.033941,44.689 C104.355109,44.8926677 104.727188,45.1119988 105.150191,45.347 C105.573193,45.5820012 106.070604,45.8013323 106.642441,46.005 C107.214277,46.2086677 107.938853,46.3105 108.816191,46.3105 C109.505527,46.3105 110.096938,46.2282508 110.590441,46.06375 C111.083943,45.8992492 111.491272,45.6838347 111.812441,45.4175 C112.133609,45.1511653 112.368606,44.8417518 112.517441,44.48925 C112.666275,44.1367482 112.740691,43.7725019 112.740691,43.3965 C112.740691,42.8324972 112.572276,42.3703351 112.235441,42.01 C111.898606,41.6496649 111.45211,41.3363347 110.895941,41.07 C110.339771,40.8036653 109.705277,40.5647511 108.992441,40.35325 C108.279604,40.1417489 107.551111,39.9106679 106.806941,39.66 C106.06277,39.4093321 105.334277,39.115585 104.621441,38.77875 C103.908604,38.441915 103.27411,38.0150026 102.717941,37.498 C102.161771,36.9809974 101.715276,36.3465038 101.378441,35.5945 C101.041606,34.8424962 100.873191,33.9338387 100.873191,32.8685 C100.873191,31.8814951 101.069022,30.9415045 101.460691,30.0485 C101.852359,29.1554955 102.428103,28.3760867 103.187941,27.71025 C103.947778,27.0444133 104.895602,26.511752 106.031441,26.11225 C107.16728,25.712748 108.47935,25.513 109.967691,25.513 C111.628366,25.513 113.140184,25.7871639 114.503191,26.3355 C115.866197,26.8838361 117.002019,27.6044955 117.910691,28.4975 L116.594691,30.589 Z" id="dates" fill="#1E272E" fill-rule="nonzero"></path>
                <rect id="Rectangle" fill="#F53B57" transform="translate(159.914434, 24.772299) rotate(15.000000) translate(-159.914434, -24.772299) " x="123.914434" y="8.77229884" width="72" height="32" rx="4"></rect>
                <path d="M137.355099,30.0264427 C137.355099,31.1184427 136.557099,31.8744427 135.507099,31.8744427 C134.457099,31.8744427 133.722099,31.1394427 133.722099,30.1314427 C133.722099,29.0184427 134.499099,28.2834427 135.570099,28.2834427 C136.578099,28.2834427 137.355099,28.9974427 137.355099,30.0264427 Z M158.790099,18.1584427 L155.351099,27.8864427 C154.762099,29.5014427 154.420099,30.5084427 154.078099,31.6104427 L152.121099,31.7814427 L149.062099,23.0224427 L147.257099,28.3044427 C146.896099,29.3874427 146.478099,30.4704427 146.060099,31.7244427 L144.084099,31.7244427 L140.702099,22.0534427 C140.303099,20.8754427 139.771099,19.3364427 139.315099,18.1964427 L142.583099,18.0444427 L145.281099,27.0124427 L147.162099,21.2174427 C147.409099,20.4574427 147.979099,18.8234427 148.207099,18.0824427 L150.069099,17.9114427 L153.090099,26.9554427 L154.724099,21.2744427 L155.617099,18.1584427 L158.790099,18.1584427 Z M171.950099,18.0254427 C171.855099,18.8614427 171.798099,19.6404427 171.798099,20.6474427 C170.430099,20.6284427 169.233099,20.6094427 167.656099,20.6094427 C167.637099,21.0274427 167.637099,21.5214427 167.637099,21.8254427 L167.637099,28.7604427 C167.637099,29.4824427 167.656099,30.9644427 167.713099,31.4964427 L164.445099,31.4964427 C164.540099,30.5844427 164.578099,28.1524427 164.578099,26.9174427 L164.578099,23.5734427 C164.578099,22.8324427 164.578099,21.6164427 164.540099,20.6094427 C162.963099,20.6094427 161.671099,20.6284427 160.322099,20.6474427 C160.379099,19.8874427 160.398099,18.8994427 160.398099,18.0254427 C162.203099,18.0824427 163.970099,18.1204427 166.117099,18.1204427 C168.283099,18.1204427 170.126099,18.0824427 171.950099,18.0254427 Z M183.324099,18.0254427 C183.248099,18.8424427 183.191099,19.5834427 183.191099,20.5524427 C182.165099,20.5334427 181.101099,20.5144427 179.885099,20.5144427 C179.315099,20.5144427 178.726099,20.5144427 178.175099,20.5334427 C178.137099,20.8564427 178.137099,21.3314427 178.137099,21.5784427 L178.137099,23.6874427 L182.298099,23.6874427 C182.260099,24.3714427 182.241099,25.1314427 182.241099,25.9674427 L178.137099,25.9484427 L178.137099,28.7604427 C178.137099,29.5014427 178.156099,30.9644427 178.213099,31.4964427 L174.964099,31.4964427 C175.059099,30.5844427 175.097099,28.1524427 175.097099,26.9174427 L175.097099,22.7184427 C175.097099,21.5024427 175.059099,18.9374427 174.964099,18.0254427 C176.237099,18.0824427 177.662099,18.1204427 179.239099,18.1204427 C180.721099,18.1204427 182.108099,18.0824427 183.324099,18.0254427 Z" id=".WTF" fill="#FFFFFF" fill-rule="nonzero" transform="translate(158.523099, 24.892943) rotate(15.000000) translate(-158.523099, -24.892943) "></path>
            </g>
        </g>
    </g>
</svg>